<mxfile host="app.diagrams.net" modified="2024-01-04T14:25:09.223Z" agent="Mozilla/5.0 (Windows NT 10.0; Win64; x64) AppleWebKit/537.36 (KHTML, like Gecko) Chrome/120.0.0.0 Safari/537.36" etag="x1eI0yijG2Vsd1KiLXhj" version="22.1.16" type="device">
  <diagram name="PÃ¡gina-1" id="2rE92zy43LrqwUoAJ577">
    <mxGraphModel dx="2501" dy="772" grid="1" gridSize="10" guides="1" tooltips="1" connect="1" arrows="1" fold="1" page="1" pageScale="1" pageWidth="827" pageHeight="1169" math="0" shadow="0">
      <root>
        <mxCell id="0" />
        <mxCell id="1" parent="0" />
        <mxCell id="qFA9ekKdhh3xIrF0n9S3-4" style="edgeStyle=orthogonalEdgeStyle;rounded=0;orthogonalLoop=1;jettySize=auto;html=1;exitX=0.5;exitY=1;exitDx=0;exitDy=0;" edge="1" parent="1">
          <mxGeometry relative="1" as="geometry">
            <mxPoint x="514" y="145" as="targetPoint" />
            <mxPoint x="514" y="95" as="sourcePoint" />
          </mxGeometry>
        </mxCell>
        <mxCell id="qFA9ekKdhh3xIrF0n9S3-8" style="edgeStyle=orthogonalEdgeStyle;rounded=0;orthogonalLoop=1;jettySize=auto;html=1;" edge="1" parent="1" source="qFA9ekKdhh3xIrF0n9S3-5" target="qFA9ekKdhh3xIrF0n9S3-9">
          <mxGeometry relative="1" as="geometry">
            <mxPoint x="350" y="185" as="targetPoint" />
          </mxGeometry>
        </mxCell>
        <mxCell id="qFA9ekKdhh3xIrF0n9S3-14" style="edgeStyle=orthogonalEdgeStyle;rounded=0;orthogonalLoop=1;jettySize=auto;html=1;exitX=1;exitY=0.5;exitDx=0;exitDy=0;" edge="1" parent="1" source="qFA9ekKdhh3xIrF0n9S3-5" target="qFA9ekKdhh3xIrF0n9S3-15">
          <mxGeometry relative="1" as="geometry">
            <mxPoint x="630" y="185" as="targetPoint" />
          </mxGeometry>
        </mxCell>
        <mxCell id="qFA9ekKdhh3xIrF0n9S3-46" style="edgeStyle=orthogonalEdgeStyle;rounded=0;orthogonalLoop=1;jettySize=auto;html=1;exitX=0.5;exitY=1;exitDx=0;exitDy=0;entryX=0.5;entryY=0;entryDx=0;entryDy=0;" edge="1" parent="1" source="qFA9ekKdhh3xIrF0n9S3-5" target="qFA9ekKdhh3xIrF0n9S3-34">
          <mxGeometry relative="1" as="geometry" />
        </mxCell>
        <mxCell id="qFA9ekKdhh3xIrF0n9S3-5" value="MICROSOFT" style="ellipse;whiteSpace=wrap;html=1;" vertex="1" parent="1">
          <mxGeometry x="454" y="145" width="120" height="80" as="geometry" />
        </mxCell>
        <mxCell id="qFA9ekKdhh3xIrF0n9S3-7" value="&lt;br&gt;" style="text;html=1;align=center;verticalAlign=middle;resizable=0;points=[];autosize=1;strokeColor=none;fillColor=none;" vertex="1" parent="1">
          <mxGeometry x="520" y="248" width="20" height="30" as="geometry" />
        </mxCell>
        <mxCell id="qFA9ekKdhh3xIrF0n9S3-19" style="edgeStyle=orthogonalEdgeStyle;rounded=0;orthogonalLoop=1;jettySize=auto;html=1;exitX=0;exitY=0.5;exitDx=0;exitDy=0;" edge="1" parent="1" source="qFA9ekKdhh3xIrF0n9S3-9" target="qFA9ekKdhh3xIrF0n9S3-20">
          <mxGeometry relative="1" as="geometry">
            <mxPoint x="240" y="185" as="targetPoint" />
          </mxGeometry>
        </mxCell>
        <mxCell id="qFA9ekKdhh3xIrF0n9S3-45" style="edgeStyle=orthogonalEdgeStyle;rounded=0;orthogonalLoop=1;jettySize=auto;html=1;exitX=0.5;exitY=1;exitDx=0;exitDy=0;entryX=0.5;entryY=0;entryDx=0;entryDy=0;" edge="1" parent="1" source="qFA9ekKdhh3xIrF0n9S3-9" target="qFA9ekKdhh3xIrF0n9S3-33">
          <mxGeometry relative="1" as="geometry" />
        </mxCell>
        <mxCell id="qFA9ekKdhh3xIrF0n9S3-9" value="INTELLIAS" style="ellipse;whiteSpace=wrap;html=1;" vertex="1" parent="1">
          <mxGeometry x="290" y="145" width="120" height="80" as="geometry" />
        </mxCell>
        <mxCell id="qFA9ekKdhh3xIrF0n9S3-17" style="edgeStyle=orthogonalEdgeStyle;rounded=0;orthogonalLoop=1;jettySize=auto;html=1;exitX=1;exitY=0.5;exitDx=0;exitDy=0;" edge="1" parent="1" source="qFA9ekKdhh3xIrF0n9S3-15" target="qFA9ekKdhh3xIrF0n9S3-18">
          <mxGeometry relative="1" as="geometry">
            <mxPoint x="780" y="185" as="targetPoint" />
          </mxGeometry>
        </mxCell>
        <mxCell id="qFA9ekKdhh3xIrF0n9S3-47" style="edgeStyle=orthogonalEdgeStyle;rounded=0;orthogonalLoop=1;jettySize=auto;html=1;exitX=0.5;exitY=1;exitDx=0;exitDy=0;entryX=0.5;entryY=0;entryDx=0;entryDy=0;" edge="1" parent="1" source="qFA9ekKdhh3xIrF0n9S3-15" target="qFA9ekKdhh3xIrF0n9S3-35">
          <mxGeometry relative="1" as="geometry" />
        </mxCell>
        <mxCell id="qFA9ekKdhh3xIrF0n9S3-15" value="CLEVA" style="ellipse;whiteSpace=wrap;html=1;" vertex="1" parent="1">
          <mxGeometry x="620" y="145" width="120" height="80" as="geometry" />
        </mxCell>
        <mxCell id="qFA9ekKdhh3xIrF0n9S3-21" style="edgeStyle=orthogonalEdgeStyle;rounded=0;orthogonalLoop=1;jettySize=auto;html=1;exitX=1;exitY=0.5;exitDx=0;exitDy=0;entryX=0;entryY=0.5;entryDx=0;entryDy=0;" edge="1" parent="1" source="qFA9ekKdhh3xIrF0n9S3-18" target="qFA9ekKdhh3xIrF0n9S3-24">
          <mxGeometry relative="1" as="geometry">
            <mxPoint x="940" y="185" as="targetPoint" />
          </mxGeometry>
        </mxCell>
        <mxCell id="qFA9ekKdhh3xIrF0n9S3-48" style="edgeStyle=orthogonalEdgeStyle;rounded=0;orthogonalLoop=1;jettySize=auto;html=1;exitX=0.5;exitY=1;exitDx=0;exitDy=0;entryX=0.5;entryY=0;entryDx=0;entryDy=0;" edge="1" parent="1" source="qFA9ekKdhh3xIrF0n9S3-18" target="qFA9ekKdhh3xIrF0n9S3-36">
          <mxGeometry relative="1" as="geometry" />
        </mxCell>
        <mxCell id="qFA9ekKdhh3xIrF0n9S3-18" value="BPI" style="ellipse;whiteSpace=wrap;html=1;" vertex="1" parent="1">
          <mxGeometry x="790" y="145" width="120" height="80" as="geometry" />
        </mxCell>
        <mxCell id="qFA9ekKdhh3xIrF0n9S3-22" style="edgeStyle=orthogonalEdgeStyle;rounded=0;orthogonalLoop=1;jettySize=auto;html=1;exitX=0;exitY=0.5;exitDx=0;exitDy=0;" edge="1" parent="1" source="qFA9ekKdhh3xIrF0n9S3-20" target="qFA9ekKdhh3xIrF0n9S3-23">
          <mxGeometry relative="1" as="geometry">
            <mxPoint x="90" y="185" as="targetPoint" />
          </mxGeometry>
        </mxCell>
        <mxCell id="qFA9ekKdhh3xIrF0n9S3-44" style="edgeStyle=orthogonalEdgeStyle;rounded=0;orthogonalLoop=1;jettySize=auto;html=1;exitX=0.5;exitY=1;exitDx=0;exitDy=0;entryX=0.5;entryY=0;entryDx=0;entryDy=0;" edge="1" parent="1" source="qFA9ekKdhh3xIrF0n9S3-20" target="qFA9ekKdhh3xIrF0n9S3-32">
          <mxGeometry relative="1" as="geometry" />
        </mxCell>
        <mxCell id="qFA9ekKdhh3xIrF0n9S3-20" value="SONAE" style="ellipse;whiteSpace=wrap;html=1;" vertex="1" parent="1">
          <mxGeometry x="120" y="145" width="120" height="80" as="geometry" />
        </mxCell>
        <mxCell id="qFA9ekKdhh3xIrF0n9S3-28" style="edgeStyle=orthogonalEdgeStyle;rounded=0;orthogonalLoop=1;jettySize=auto;html=1;entryX=1;entryY=0.5;entryDx=0;entryDy=0;" edge="1" parent="1" source="qFA9ekKdhh3xIrF0n9S3-23" target="qFA9ekKdhh3xIrF0n9S3-26">
          <mxGeometry relative="1" as="geometry" />
        </mxCell>
        <mxCell id="qFA9ekKdhh3xIrF0n9S3-43" style="edgeStyle=orthogonalEdgeStyle;rounded=0;orthogonalLoop=1;jettySize=auto;html=1;exitX=0.5;exitY=1;exitDx=0;exitDy=0;entryX=0.5;entryY=0;entryDx=0;entryDy=0;" edge="1" parent="1" source="qFA9ekKdhh3xIrF0n9S3-23" target="qFA9ekKdhh3xIrF0n9S3-31">
          <mxGeometry relative="1" as="geometry" />
        </mxCell>
        <mxCell id="qFA9ekKdhh3xIrF0n9S3-23" value="MILLENIUM" style="ellipse;whiteSpace=wrap;html=1;" vertex="1" parent="1">
          <mxGeometry x="-40" y="145" width="120" height="80" as="geometry" />
        </mxCell>
        <mxCell id="qFA9ekKdhh3xIrF0n9S3-30" style="edgeStyle=orthogonalEdgeStyle;rounded=0;orthogonalLoop=1;jettySize=auto;html=1;exitX=1;exitY=0.5;exitDx=0;exitDy=0;" edge="1" parent="1" source="qFA9ekKdhh3xIrF0n9S3-24" target="qFA9ekKdhh3xIrF0n9S3-29">
          <mxGeometry relative="1" as="geometry" />
        </mxCell>
        <mxCell id="qFA9ekKdhh3xIrF0n9S3-49" style="edgeStyle=orthogonalEdgeStyle;rounded=0;orthogonalLoop=1;jettySize=auto;html=1;exitX=0.5;exitY=1;exitDx=0;exitDy=0;" edge="1" parent="1" source="qFA9ekKdhh3xIrF0n9S3-24" target="qFA9ekKdhh3xIrF0n9S3-37">
          <mxGeometry relative="1" as="geometry" />
        </mxCell>
        <mxCell id="qFA9ekKdhh3xIrF0n9S3-24" value="GALP" style="ellipse;whiteSpace=wrap;html=1;" vertex="1" parent="1">
          <mxGeometry x="960" y="145" width="120" height="80" as="geometry" />
        </mxCell>
        <mxCell id="qFA9ekKdhh3xIrF0n9S3-26" value="BOSH" style="ellipse;whiteSpace=wrap;html=1;" vertex="1" parent="1">
          <mxGeometry x="-197" y="145" width="120" height="80" as="geometry" />
        </mxCell>
        <mxCell id="qFA9ekKdhh3xIrF0n9S3-29" value="MANPOWER" style="ellipse;whiteSpace=wrap;html=1;" vertex="1" parent="1">
          <mxGeometry x="1121" y="145" width="120" height="80" as="geometry" />
        </mxCell>
        <mxCell id="qFA9ekKdhh3xIrF0n9S3-31" value="BLIP" style="ellipse;whiteSpace=wrap;html=1;" vertex="1" parent="1">
          <mxGeometry x="-40" y="248" width="120" height="80" as="geometry" />
        </mxCell>
        <mxCell id="qFA9ekKdhh3xIrF0n9S3-50" style="edgeStyle=orthogonalEdgeStyle;rounded=0;orthogonalLoop=1;jettySize=auto;html=1;exitX=0.5;exitY=1;exitDx=0;exitDy=0;entryX=0.5;entryY=0;entryDx=0;entryDy=0;" edge="1" parent="1" source="qFA9ekKdhh3xIrF0n9S3-32" target="qFA9ekKdhh3xIrF0n9S3-38">
          <mxGeometry relative="1" as="geometry" />
        </mxCell>
        <mxCell id="qFA9ekKdhh3xIrF0n9S3-32" value="CRITICAL" style="ellipse;whiteSpace=wrap;html=1;" vertex="1" parent="1">
          <mxGeometry x="120" y="248" width="120" height="80" as="geometry" />
        </mxCell>
        <mxCell id="qFA9ekKdhh3xIrF0n9S3-52" style="edgeStyle=orthogonalEdgeStyle;rounded=0;orthogonalLoop=1;jettySize=auto;html=1;exitX=0.5;exitY=1;exitDx=0;exitDy=0;entryX=0.5;entryY=0;entryDx=0;entryDy=0;" edge="1" parent="1" source="qFA9ekKdhh3xIrF0n9S3-33" target="qFA9ekKdhh3xIrF0n9S3-39">
          <mxGeometry relative="1" as="geometry" />
        </mxCell>
        <mxCell id="qFA9ekKdhh3xIrF0n9S3-33" value="CODIGREE" style="ellipse;whiteSpace=wrap;html=1;" vertex="1" parent="1">
          <mxGeometry x="290" y="248" width="120" height="80" as="geometry" />
        </mxCell>
        <mxCell id="qFA9ekKdhh3xIrF0n9S3-53" style="edgeStyle=orthogonalEdgeStyle;rounded=0;orthogonalLoop=1;jettySize=auto;html=1;exitX=0.5;exitY=1;exitDx=0;exitDy=0;entryX=0.5;entryY=0;entryDx=0;entryDy=0;" edge="1" parent="1" source="qFA9ekKdhh3xIrF0n9S3-34" target="qFA9ekKdhh3xIrF0n9S3-40">
          <mxGeometry relative="1" as="geometry" />
        </mxCell>
        <mxCell id="qFA9ekKdhh3xIrF0n9S3-34" value="BIT" style="ellipse;whiteSpace=wrap;html=1;" vertex="1" parent="1">
          <mxGeometry x="454" y="248" width="120" height="80" as="geometry" />
        </mxCell>
        <mxCell id="qFA9ekKdhh3xIrF0n9S3-54" style="edgeStyle=orthogonalEdgeStyle;rounded=0;orthogonalLoop=1;jettySize=auto;html=1;exitX=0.5;exitY=1;exitDx=0;exitDy=0;" edge="1" parent="1" source="qFA9ekKdhh3xIrF0n9S3-35" target="qFA9ekKdhh3xIrF0n9S3-41">
          <mxGeometry relative="1" as="geometry" />
        </mxCell>
        <mxCell id="qFA9ekKdhh3xIrF0n9S3-35" value="FINATECH" style="ellipse;whiteSpace=wrap;html=1;" vertex="1" parent="1">
          <mxGeometry x="620" y="248" width="120" height="80" as="geometry" />
        </mxCell>
        <mxCell id="qFA9ekKdhh3xIrF0n9S3-55" style="edgeStyle=orthogonalEdgeStyle;rounded=0;orthogonalLoop=1;jettySize=auto;html=1;exitX=0.5;exitY=1;exitDx=0;exitDy=0;entryX=0.5;entryY=0;entryDx=0;entryDy=0;" edge="1" parent="1" source="qFA9ekKdhh3xIrF0n9S3-36" target="qFA9ekKdhh3xIrF0n9S3-42">
          <mxGeometry relative="1" as="geometry" />
        </mxCell>
        <mxCell id="qFA9ekKdhh3xIrF0n9S3-36" value="NATIXIS" style="ellipse;whiteSpace=wrap;html=1;" vertex="1" parent="1">
          <mxGeometry x="790" y="248" width="120" height="80" as="geometry" />
        </mxCell>
        <mxCell id="qFA9ekKdhh3xIrF0n9S3-37" value="ADIDAS" style="ellipse;whiteSpace=wrap;html=1;" vertex="1" parent="1">
          <mxGeometry x="960" y="248" width="120" height="80" as="geometry" />
        </mxCell>
        <mxCell id="qFA9ekKdhh3xIrF0n9S3-38" value="WEEZIE" style="ellipse;whiteSpace=wrap;html=1;" vertex="1" parent="1">
          <mxGeometry x="120" y="370" width="120" height="80" as="geometry" />
        </mxCell>
        <mxCell id="qFA9ekKdhh3xIrF0n9S3-39" value="AVLINO" style="ellipse;whiteSpace=wrap;html=1;" vertex="1" parent="1">
          <mxGeometry x="290" y="370" width="120" height="80" as="geometry" />
        </mxCell>
        <mxCell id="qFA9ekKdhh3xIrF0n9S3-40" value="MOBIWEB" style="ellipse;whiteSpace=wrap;html=1;" vertex="1" parent="1">
          <mxGeometry x="454" y="370" width="120" height="80" as="geometry" />
        </mxCell>
        <mxCell id="qFA9ekKdhh3xIrF0n9S3-41" value="EUPAGO" style="ellipse;whiteSpace=wrap;html=1;" vertex="1" parent="1">
          <mxGeometry x="620" y="370" width="120" height="80" as="geometry" />
        </mxCell>
        <mxCell id="qFA9ekKdhh3xIrF0n9S3-42" value="DECSKILL" style="ellipse;whiteSpace=wrap;html=1;" vertex="1" parent="1">
          <mxGeometry x="790" y="370" width="120" height="80" as="geometry" />
        </mxCell>
        <mxCell id="qFA9ekKdhh3xIrF0n9S3-56" value="GOOGLE" style="shape=hexagon;perimeter=hexagonPerimeter2;whiteSpace=wrap;html=1;fixedSize=1;" vertex="1" parent="1">
          <mxGeometry x="454" y="20" width="120" height="80" as="geometry" />
        </mxCell>
      </root>
    </mxGraphModel>
  </diagram>
</mxfile>
